<svg width="27" height="26" viewBox="0 0 27 26" fill="none" xmlns="http://www.w3.org/2000/svg">
<mask id="path-1-inside-1_1_619" fill="white">
<path d="M4.98013 9.41321C4.19201 11.3963 4.09453 13.587 4.7034 15.6323C5.31226 17.6775 6.592 19.4582 8.3364 20.6874C10.0808 21.9166 12.1882 22.5227 14.3191 22.408C16.45 22.2933 18.4802 21.4645 20.0826 20.0552C21.685 18.6458 22.7662 16.7381 23.152 14.6393C23.5378 12.5405 23.2057 10.3729 22.2093 8.48583C21.2128 6.59878 19.6101 5.10217 17.6593 4.23718C15.7085 3.37219 13.5233 3.18919 11.4558 3.71768L11.7113 4.71739C13.5543 4.2463 15.5021 4.40942 17.241 5.18046C18.9799 5.95151 20.4086 7.28556 21.2968 8.96764C22.185 10.6497 22.481 12.5819 22.1371 14.4527C21.7932 16.3235 20.8294 18.0241 19.4011 19.2804C17.9728 20.5366 16.1631 21.2754 14.2637 21.3776C12.3642 21.4799 10.4857 20.9396 8.93076 19.844C7.37583 18.7483 6.23509 17.161 5.69236 15.3379C5.14963 13.5148 5.23652 11.562 5.93903 9.7943L4.98013 9.41321Z"/>
</mask>
<path d="M4.98013 9.41321C4.19201 11.3963 4.09453 13.587 4.7034 15.6323C5.31226 17.6775 6.592 19.4582 8.3364 20.6874C10.0808 21.9166 12.1882 22.5227 14.3191 22.408C16.45 22.2933 18.4802 21.4645 20.0826 20.0552C21.685 18.6458 22.7662 16.7381 23.152 14.6393C23.5378 12.5405 23.2057 10.3729 22.2093 8.48583C21.2128 6.59878 19.6101 5.10217 17.6593 4.23718C15.7085 3.37219 13.5233 3.18919 11.4558 3.71768L11.7113 4.71739C13.5543 4.2463 15.5021 4.40942 17.241 5.18046C18.9799 5.95151 20.4086 7.28556 21.2968 8.96764C22.185 10.6497 22.481 12.5819 22.1371 14.4527C21.7932 16.3235 20.8294 18.0241 19.4011 19.2804C17.9728 20.5366 16.1631 21.2754 14.2637 21.3776C12.3642 21.4799 10.4857 20.9396 8.93076 19.844C7.37583 18.7483 6.23509 17.161 5.69236 15.3379C5.14963 13.5148 5.23652 11.562 5.93903 9.7943L4.98013 9.41321Z" stroke="#A1C0E3" stroke-width="2" mask="url(#path-1-inside-1_1_619)"/>
<path d="M8.07843 14.478L5.49397 9.19148L1.75428 13.2426" stroke="#A1C0E3"/>
</svg>
